<?xml version="1.0" encoding="UTF-8" standalone="no"?>
<!-- Created with Inkscape (http://www.inkscape.org/) -->

<svg
   xmlns:dc="http://purl.org/dc/elements/1.1/"
   xmlns:cc="http://creativecommons.org/ns#"
   xmlns:rdf="http://www.w3.org/1999/02/22-rdf-syntax-ns#"
   xmlns:svg="http://www.w3.org/2000/svg"
   xmlns="http://www.w3.org/2000/svg"
   xmlns:xlink="http://www.w3.org/1999/xlink"
   xmlns:sodipodi="http://sodipodi.sourceforge.net/DTD/sodipodi-0.dtd"
   xmlns:inkscape="http://www.inkscape.org/namespaces/inkscape"
   width="84"
   height="48"
   id="svg3893"
   version="1.1"
   inkscape:version="0.48.3.1 r9886"
   sodipodi:docname="car.svg">
  <defs
     id="defs3895" />
  <sodipodi:namedview
     id="base"
     pagecolor="#ffffff"
     bordercolor="#666666"
     borderopacity="1.0"
     inkscape:pageopacity="0.0"
     inkscape:pageshadow="2"
     inkscape:zoom="5.6"
     inkscape:cx="39.840731"
     inkscape:cy="5.1872184"
     inkscape:document-units="px"
     inkscape:current-layer="layer1"
     showgrid="false"
     inkscape:window-width="1023"
     inkscape:window-height="783"
     inkscape:window-x="11"
     inkscape:window-y="39"
     inkscape:window-maximized="0"
     showguides="true"
     inkscape:guide-bbox="true" />
  <metadata
     id="metadata3898">
    <rdf:RDF>
      <cc:Work
         rdf:about="">
        <dc:format>image/svg+xml</dc:format>
        <dc:type
           rdf:resource="http://purl.org/dc/dcmitype/StillImage" />
        <dc:title />
      </cc:Work>
    </rdf:RDF>
  </metadata>
  <g
     inkscape:label="Calque 1"
     inkscape:groupmode="layer"
     id="layer1"
     transform="translate(0,-1004.3622)">
    <path
       id="use3904"
       style="fill:#ff2b00;stroke:#2f2f2f;stroke-width:1;stroke-linecap:butt;stroke-linejoin:miter;stroke-opacity:1;stroke-miterlimit:4;stroke-dasharray:none;fill-opacity:1"
       d="m 79.296975,1028.8766 c 0.103459,7.1615 -0.650157,18.4091 -10.354064,21.2507 -4.620338,0.9841 -11.477248,-0.076 -16.04209,-0.8072 -9.297525,-1.4888 -15.863072,-0.3101 -23.515641,-0.5884 -7.652569,-0.2781 -9.484407,1.3888 -16.510883,1.3558 -8.2686721,-0.2247 -9.6596478,-10.7018 -9.8438394,-21.0733 l 0,-0.2643 c 0.1841916,-9.4905 1.5751673,-19.0776 9.8438394,-19.2832 7.026476,-0.03 8.858314,1.4951 16.510883,1.2406 7.652569,-0.2546 14.218116,0.8239 23.515641,-0.5384 4.564842,-0.6687 11.421752,-1.6391 16.04209,-0.7386 9.703907,2.6002 10.457523,12.8924 10.354064,19.4455"
       inkscape:connector-curvature="0"
       sodipodi:nodetypes="cccccccccccc" />
    <rect
       style="fill:#ffffff;fill-opacity:1;stroke:none"
       id="rect3065"
       width="75.123825"
       height="9.5306273"
       x="3.6278148"
       y="1024.3607"
       ry="1.8005095" />
    <path
       style="fill:#333333;fill-opacity:1;stroke:none"
       d="m 47.014332,1017.2692 c 0,0 11.728123,-4.0902 13.608076,-4.0205 4.175205,0.1546 5.721578,32.9377 0.773187,33.0924 -3.738352,0.1163 -14.381263,-3.7114 -14.381263,-3.7114 z"
       id="path3926"
       inkscape:connector-curvature="0"
       sodipodi:nodetypes="csscc" />
    <path
       sodipodi:nodetypes="csscc"
       inkscape:connector-curvature="0"
       id="path4436"
       d="m 18.060193,1018.1537 c 0,0 -3.754724,-2.5721 -5.388837,-2.5116 -3.6292171,0.1345 -4.9733724,28.6305 -0.672078,28.765 3.24949,0.1011 6.313453,-2.2644 6.313453,-2.2644 z"
       style="fill:#333333;fill-opacity:1;stroke:none" />
    <path
       style="fill:#333333;fill-opacity:1;stroke:none"
       d="m 45.446429,1012.8979 c 0,0 -18.392858,-0.5358 -20.178572,-0.1786 -1.785714,0.3571 -2.321428,1.6071 -2.321428,1.6071 0,0 18.928571,0 22.5,-1.4285 z"
       id="path4438"
       inkscape:connector-curvature="0" />
    <use
       x="0"
       y="0"
       xlink:href="#path4438"
       id="use4440"
       transform="matrix(1,0,0,-1,0,2059.2443)"
       width="84"
       height="48" />
    <path
       style="fill:#333333;fill-opacity:1;stroke:none"
       d="m 75.16932,1014.2255 c -2.064945,0.263 -1.59154,3.758 -0.612242,5.7935 0.979283,2.0353 3.615106,2.9401 3.921281,2.7072 0.508852,-0.387 -1.995468,-8.668 -3.309039,-8.5007 z"
       id="path4447"
       inkscape:connector-curvature="0"
       sodipodi:nodetypes="ssss" />
    <path
       sodipodi:nodetypes="ssss"
       inkscape:connector-curvature="0"
       id="path4451"
       d="m 75.248182,1044.675 c -2.069433,-0.225 -1.660391,-3.7281 -0.718698,-5.7813 0.941682,-2.053 3.560418,-3.0061 3.870824,-2.7789 0.515884,0.3776 -1.8357,8.7033 -3.152126,8.5602 z"
       style="fill:#333333;fill-opacity:1;stroke:none" />
    <rect
       style="opacity:0.20000000000000001;fill:#ffffff;fill-opacity:1;stroke:none"
       id="rect4453"
       width="26.250002"
       height="25.089283"
       x="19.642859"
       y="1017.4515"
       ry="2.0099225"
       rx="2.0099225" />
  </g>
</svg>
