<?xml version="1.0" encoding="UTF-8" standalone="no"?>
<!-- Created with Inkscape (http://www.inkscape.org/) -->

<svg
   xmlns:dc="http://purl.org/dc/elements/1.1/"
   xmlns:cc="http://creativecommons.org/ns#"
   xmlns:rdf="http://www.w3.org/1999/02/22-rdf-syntax-ns#"
   xmlns:svg="http://www.w3.org/2000/svg"
   xmlns="http://www.w3.org/2000/svg"
   xmlns:xlink="http://www.w3.org/1999/xlink"
   xmlns:sodipodi="http://sodipodi.sourceforge.net/DTD/sodipodi-0.dtd"
   xmlns:inkscape="http://www.inkscape.org/namespaces/inkscape"
   width="48"
   height="48"
   id="svg2"
   version="1.1"
   inkscape:version="0.48.5 r10040"
   sodipodi:docname="player.svg"
   inkscape:export-filename="/Volumes/Case Sensitive/perso/ld31/img/player.png"
   inkscape:export-xdpi="300"
   inkscape:export-ydpi="300">
  <defs
     id="defs4" />
  <sodipodi:namedview
     id="base"
     pagecolor="#ffffff"
     bordercolor="#666666"
     borderopacity="1.0"
     inkscape:pageopacity="0.0"
     inkscape:pageshadow="2"
     inkscape:zoom="7.9195959"
     inkscape:cx="12.80669"
     inkscape:cy="17.393619"
     inkscape:document-units="px"
     inkscape:current-layer="layer3"
     showgrid="false"
     inkscape:window-width="1158"
     inkscape:window-height="843"
     inkscape:window-x="69"
     inkscape:window-y="0"
     inkscape:window-maximized="0" />
  <metadata
     id="metadata7">
    <rdf:RDF>
      <cc:Work
         rdf:about="">
        <dc:format>image/svg+xml</dc:format>
        <dc:type
           rdf:resource="http://purl.org/dc/dcmitype/StillImage" />
        <dc:title></dc:title>
      </cc:Work>
    </rdf:RDF>
  </metadata>
  <g
     inkscape:label="Calque 1"
     inkscape:groupmode="layer"
     id="layer1"
     transform="translate(0,-1004.3622)">
    <path
       style="fill:none;stroke:#f9f9f9;stroke-opacity:1;stroke-width:2;stroke-miterlimit:4;stroke-dasharray:none;opacity:0"
       d="M 29.21875 10.5625 C 28.697512 10.567637 28.331635 10.6305 28.625 10.84375 C 28.182162 11.21005 27.052583 11.4896 26.25 11.5625 C 25.392558 11.5075 24.66508 11.8372 24.03125 12 C 23.882471 11.9999 23.742408 12.0001 23.59375 12 C 22.948617 11.6482 22.18015 11.72405 21.4375 11.71875 C 20.61346 11.74075 20.182373 11.8931 19.375 12 C 18.267309 12.2938 17.206875 13.0557 16.1875 13.6875 C 15.27874 14.244 14.449674 14.6636 13.75 15.3125 C 13.793291 15.766991 13.728915 16.167447 13.5625 16.5625 C 13.011043 16.757442 12.279258 16.817917 11.9375 17.0625 C 11.30262 17.3008 10.329979 17.3158 9.71875 17.75 C 9.3967852 17.9284 9.1832796 18.2189 8.78125 18.4375 C 8.2264037 18.9316 7.5854591 19.41485 7.0625 19.71875 C 6.8972125 19.94505 6.5352772 20.16735 6.375 20.40625 C 6.036158 20.82075 5.3635887 21.04605 5.125 21.46875 C 4.8442213 21.84635 4.7793961 22.5776 4.59375 23 C 4.4254998 23.6186 4.7864457 24.25815 4.6875 24.90625 C 5.037571 25.44935 5.0693821 26.09905 5.125 26.78125 C 5.159039 27.30435 5.0146694 27.7862 5.0625 28.3125 C 5.05594 28.8388 5.0529823 29.37605 5.25 29.84375 C 5.371729 30.58955 5.8674995 30.98215 6.5 31.28125 C 6.8391015 31.62325 7.0513067 32.13945 7.4375 32.46875 C 7.6440459 32.69715 8.0406294 33.43575 8.46875 33.84375 C 8.7332227 34.14585 9.1094493 34.3337 9.28125 34.5625 C 9.5061648 34.711154 9.7383401 34.803075 9.9375 34.875 C 10.112378 35.133803 10.268474 35.38375 10.375 35.65625 C 10.9925 36.49165 11.649986 37.116 12.1875 37.875 C 13.308905 38.6041 13.992659 40.0135 14.5625 40.75 C 15.152571 41.2621 16.060039 41.1883 16.625 41.5625 C 17.787569 42.1323 19.111586 42.01515 20.28125 42.09375 C 21.341119 42.12975 21.63839 43.4564 22.84375 43.375 C 23.434127 43.8825 24.431543 43.8311 25.1875 43.6875 C 26.309333 43.5091 27.214256 42.5804 28.1875 43 C 28.539467 42.2709 29.856374 42.27885 29.9375 41.90625 C 30.461988 41.8419 31.128296 41.662738 31.59375 41.4375 C 32.569881 41.474805 33.538779 41.367588 34.46875 41 C 35.635353 40.4424 37.040048 39.6796 37.21875 38.25 C 37.437669 36.672 38.513467 35.4935 39.1875 34.125 C 39.432856 33.054282 39.926647 31.614686 39.25 30.65625 C 39.420901 30.296025 39.602672 29.9471 39.875 29.65625 C 40.463187 29.26095 40.9449 28.724 41.1875 28.0625 C 41.212489 27.1789 41.613994 26.3702 41.71875 25.5 C 41.44642 24.8235 41.834682 23.99865 41.53125 23.28125 C 41.085626 22.49825 40.877547 21.50945 39.9375 21.15625 C 39.191688 20.74685 38.816934 19.8831 38.03125 19.5 C 37.863322 19.312172 37.684078 19.202904 37.46875 19.09375 C 37.43875 18.657828 37.400653 18.216124 37.34375 17.78125 C 37.098335 16.73015 37.75102 15.9116 37.0625 14.9375 C 36.369802 14.0833 35.49132 13.0935 34.59375 12.25 C 33.229927 11.6372 32.015162 11.08725 30.625 10.65625 C 30.392881 10.60505 29.739988 10.557363 29.21875 10.5625 z "
       transform="translate(0,1004.3622)"
       id="path2999" />
    <path
       style="fill:#cccccc;stroke:none"
       d="m 37.123107,1032.2222 c -0.422073,-1.5915 -2.091727,-2.4488 -2.532495,-4.0578 -0.717543,-1.0909 -1.985957,-2.4145 -3.376842,-1.5953 -1.601949,0.7611 -3.587649,0.6997 -4.905792,2.0186 -1.224327,0.9685 -2.496451,1.8619 -3.57574,2.9989 -1.026743,1.4316 -0.475946,3.2572 -0.109834,4.8105 0.17526,1.584 -0.569718,3.729 1.065449,4.7493 1.409375,1.0401 1.887294,2.9734 3.550539,3.7148 2.286947,0.7734 4.895308,1.4218 7.241057,0.4946 1.166603,-0.5576 2.553869,-1.3026 2.732571,-2.7322 0.218919,-1.578 1.304086,-2.7596 1.978119,-4.1281 0.292947,-1.2784 0.935995,-3.0963 -0.47618,-3.9743 -0.721306,-0.6043 -1.363553,-1.3653 -1.590852,-2.299 z"
       id="path3819"
       inkscape:connector-curvature="0" />
    <path
       style="fill:#e6e6e6;stroke:none"
       d="m 19.571706,1026.4771 c -0.1362,-0.8005 -0.753688,-1.4243 -1.262686,-2.0203 -0.405657,-0.3094 -0.785236,-0.7748 -0.883869,-1.3259 -0.26532,-0.5453 -0.610043,-1.0181 -0.877501,-1.4912 -0.196671,-0.036 -0.466877,-0.3817 -0.574554,-0.4027 -0.373155,-0.082 -1.141737,-1.159 -1.125003,-0.719 -0.212495,0.033 -0.717791,0.042 -0.959278,0.2749 -0.542038,0.3154 -1.528227,0.3397 -1.938337,0.6332 -0.63488,0.2383 -1.616456,0.2605 -2.2276847,0.6947 -0.3219648,0.1784 -0.5449889,0.4759 -0.9470185,0.6945 -0.5548463,0.4941 -1.1816743,0.9588 -1.7046334,1.2627 -0.1652875,0.2263 -0.5383057,0.4526 -0.6985829,0.6915 -0.338842,0.4145 -1.0200003,0.6535 -1.258589,1.0762 -0.2807787,0.3776 -0.3194311,1.0928 -0.5050772,1.5152 -0.1682502,0.6186 0.1620807,1.246 0.063135,1.8941 0.350071,0.5431 0.3863251,1.1968 0.441943,1.879 0.034039,0.5231 -0.1109656,1.0039 -0.063135,1.5302 -0.00656,0.5263 -0.00477,1.0783 0.1922477,1.546 0.121729,0.7458 0.6273483,1.1222 1.2598488,1.4213 0.3391015,0.342 0.560827,0.8703 0.9470203,1.1996 0.2065459,0.2284 0.5923571,0.9778 1.0204777,1.3858 0.2644727,0.3021 0.6386249,0.4688 0.8104256,0.6976 0.4956613,0.3276 0.9727756,0.4672 1.2374376,0.4262 0.761715,0.2534 1.47674,0.4717 2.297969,0.5847 0.538823,0.1415 1.100014,0.1339 1.662994,0.1255 0.377201,-0.022 0.769927,0.049 1.134052,-0.05 0.452346,-0.1094 1.510603,-0.3555 2.064428,-0.7705 0.529318,-0.439 1.345927,-0.757 1.704624,-1.389 0.24391,-0.8078 0.364153,-1.6404 0.763587,-2.3968 0.124452,-0.778 0.749959,-1.3216 1.171429,-1.9536 0.492928,-0.7551 0.395581,-1.7444 0.653481,-2.5312 0.394888,-0.7727 -0.08341,-1.3451 -0.453449,-1.8805 -0.196344,0.078 -0.154583,-0.4149 -0.177892,-0.1398 -0.275735,-0.4285 -0.674613,-0.6071 -1.010144,-0.8207 -0.22774,-0.4508 -0.348866,-0.7153 -0.441929,-1.1996 -0.325104,0.09 -0.13355,-0.2757 -0.315737,-0.4419 z"
       id="path3816"
       inkscape:connector-curvature="0" />
    <path
       style="fill:#e6e6e6;stroke:none"
       d="m 33.817491,1022.739 c 0.800338,-0.1368 1.635612,-0.1355 2.384699,0.2189 0.63124,0.268 1.363883,0.3835 1.841932,0.9182 0.785684,0.3831 1.149884,1.2227 1.895696,1.6321 0.940047,0.3532 1.150701,1.3607 1.596325,2.1437 0.303432,0.7174 -0.103614,1.5187 0.168716,2.1952 -0.104756,0.8702 -0.500487,1.6815 -0.525476,2.5651 -0.2426,0.6615 -0.706236,1.2131 -1.294423,1.6084 -0.544656,0.5817 -0.714634,1.408 -1.197233,2.0555 -0.615314,1.1831 -2.001412,1.8448 -3.309425,1.7505 -0.753206,0.1397 -1.496159,0 -2.245207,-0.1166 -0.680275,0.017 -1.387183,0.2619 -1.94493,0.6593 -0.790505,0.1993 -1.58527,0.1034 -2.288025,-0.3167 -0.711095,-0.3386 -1.84164,-0.7543 -1.548077,-1.7521 -0.229146,-0.8224 0.0035,-1.5755 -0.16105,-2.3539 0.04108,-0.9623 0.06275,-1.8894 0.258727,-2.8327 -0.220877,-0.8739 0.09086,-1.6962 0.339795,-2.5115 0.02552,-0.7819 0.118051,-1.6797 0.788964,-2.1971 0.466316,-0.6136 0.668651,-1.44 1.380119,-1.8481 0.550392,-0.4664 1.242981,-0.5943 1.867172,-0.9131 0.657107,-0.3907 1.214138,-0.9657 1.991901,-0.9053 l -2e-4,2e-4 z"
       id="path3843"
       inkscape:connector-curvature="0" />
    <path
       style="fill:#f9f9f9;stroke:none"
       d="m 23.586748,1016.3557 c -0.645133,-0.3518 -1.416325,-0.2625 -2.158975,-0.2678 -0.82404,0.022 -1.230085,0.1609 -2.037458,0.2678 -1.107691,0.2938 -2.194923,1.0647 -3.214298,1.6965 -0.90876,0.5565 -1.711032,0.9582 -2.410706,1.6071 0.106805,1.1213 -0.602581,2.0431 -1.250004,2.8572 -0.672281,1.3774 -1.848516,1.0956 -2.7678541,2.0535 -0.5332391,0.5551 -0.734015,1.3959 -0.8928579,2.0536 -0.060426,1.0198 -0.2412218,2.1476 0.089286,3.125 0.1293103,1.1127 0.5896685,2.0706 0.8987279,3.1364 0.05652,0.9315 -0.1441371,1.8127 -0.5415845,2.4886 -0.4093782,0.166 -0.5148783,1.8476 -0.3669091,1.3805 -0.2567606,1.2562 1.0122426,2.1724 1.4383457,3.2624 0.6175,0.8354 1.262176,1.4648 1.79969,2.2238 1.121405,0.7291 1.826932,2.129 2.396773,2.8655 0.590071,0.5121 1.488623,0.4294 2.053584,0.8036 1.162569,0.5698 2.497497,0.4571 3.667161,0.5357 1.059869,0.036 1.360456,1.3736 2.565816,1.2922 0.590377,0.5075 1.584626,0.4645 2.340583,0.3209 1.121833,-0.1784 2.008102,-1.1177 2.981346,-0.6981 0.351967,-0.7291 1.667577,-0.721 1.748703,-1.0936 0.806904,-0.099 2.00842,-0.4729 2.175395,-0.8617 -0.472191,-0.085 0.873062,-0.9112 1.03889,-0.6562 0.894585,-0.5977 2.064448,-0.78 2.053576,-2.1428 0.04594,-0.8626 -0.03936,-1.7965 0.625007,-2.3214 0.442619,-0.9659 2.290136,-2.5878 2.141369,-3.1372 -0.111254,-0.1165 1.061548,-1.6044 0.894354,-2.4911 0.100417,-0.9593 -0.324522,-1.7039 -0.535718,-2.586 -0.389821,-0.9998 -0.426419,-2.1892 -0.446437,-3.3197 0.125004,-1.065 -0.338566,-1.991 -0.357151,-3.0261 0.02888,-1.2084 -0.0222,-2.3857 -0.176549,-3.5653 -0.245415,-1.0511 0.418639,-1.8827 -0.269881,-2.8568 -0.692698,-0.8542 -1.586038,-1.8478 -2.483608,-2.6913 -1.363823,-0.6128 -2.554896,-1.1635 -3.945058,-1.5945 -0.464238,-0.1024 -2.610437,-0.2439 -2.023708,0.1826 -0.442838,0.3663 -1.558398,0.6374 -2.360981,0.7103 -0.857442,-0.055 -1.588647,0.2837 -2.222477,0.4465 -0.148779,-1e-4 -0.297734,0 -0.446392,-1e-4 z"
       id="path3031"
       inkscape:connector-curvature="0" />
    <path
       style="fill:#ffffff;stroke:none;stroke-width:1px;stroke-linecap:butt;stroke-linejoin:miter;stroke-opacity:1"
       d="m 10.985409,1023.3203 c 0.713516,-0.6981 1.661686,-1.0723 2.490899,-1.6453 0.449043,-0.367 1.459101,-0.183 1.423442,-0.5013 0.841205,-0.2222 1.88729,-0.4822 2.651651,-1.0101 0.781424,-0.5133 1.759579,-0.4214 2.525381,-1.0102 0.629563,-0.2127 1.012927,-0.4518 1.638795,-0.5051 0.842504,6e-4 1.686879,-8e-4 2.528084,0 0.424777,0.2906 1.056338,0.054 1.569578,0.1263 0.677925,-0.1426 1.514844,0.2228 1.91591,0.422 -0.05808,-0.1137 1.000959,0.2129 1.439006,0.083 0.437106,0.2549 1.049402,0.071 1.568225,0.1262 0.707178,-0.1232 1.15266,0.2974 1.714771,0.6314 0.379967,-0.171 1.167812,0.6183 0.868025,0.4448 0.885665,0.5443 1.585468,0.8157 2.288702,1.5124 0.554202,0.2239 0.798163,0.5394 0.883883,1.1995 0.317776,0.768 0.661451,1.5793 0.378807,2.3991 -0.35102,0.7042 -0.556337,1.5077 -1.176138,2.0717 -0.556481,0.413 -0.412908,0.7039 -0.925501,1.2499 -0.621442,0.4968 -0.506917,1.3594 -1.075736,1.8492 -0.474599,0.4158 -1.141317,0.6649 -1.747118,0.8901 -0.733616,0.077 -0.729926,1.0764 -1.641498,0.7577 -0.610005,0.4192 -1.661639,0.7271 -2.115195,0.7173 -0.746437,0.3468 -1.470387,-0.01 -2.236358,0.04 -0.884608,-0.033 -1.788699,0.071 -2.65638,-0.063 -0.919868,-0.1626 -1.878841,-0.6552 -2.714786,-0.947 -0.15293,-0.2721 -0.774827,-0.061 -1.133718,-0.1263 -0.575302,0.018 -0.252346,-0.7274 -0.634049,-0.7576 -0.656562,-0.1754 -1.392314,-0.4645 -2.272605,-0.5084 -0.599229,0.01 -1.388681,0.052 -1.761213,-0.2752 -0.838325,0.2662 -0.931698,-0.6896 -1.269483,-0.9203 0.172912,-0.65 -0.259942,-0.7886 -0.621428,-1.1509 -0.67181,-0.3624 -0.793696,-0.5858 -1.087305,-1.0565 -0.06345,-0.5708 -0.856696,-0.9441 -0.690379,-1.6418 -0.06902,-0.6566 0.275398,-0.9093 0.136858,-1.6375 -0.0072,-0.2712 -0.180632,-0.5116 -0.263127,-0.7643 z"
       id="path3870"
       inkscape:connector-curvature="0" />
    <path
       style="fill:#ff6600;stroke:none"
       d="m 23.73858,1007.8523 c -0.48758,0.5405 -0.65843,1.1612 -1.010131,1.7677 -0.258183,0.8573 -1.064013,2.5163 -1.098919,2.5782 -0.203291,0.669 -0.298513,1.2886 -0.542571,1.9044 -0.274299,0.5168 -0.494041,1.1186 -0.671614,1.6824 -0.168262,0.5056 -0.521759,0.8345 -0.520446,1.3808 -0.171204,0.6293 -0.561005,1.2237 -0.625684,1.8912 -0.278451,0.3853 -0.269961,0.7815 -0.51821,1.1696 0.06732,0.4416 -0.275158,0.9698 -0.0041,1.1394 0.125564,0.1872 0.309414,0.2826 0.446022,0.3758 0.104308,0.1915 0.486483,0.309 0.75761,0.5051 0.399938,0.2667 0.733719,0.4437 1.199547,0.6313 0.488659,0.1544 0.98532,0.2935 1.452095,0.505 0.315394,0.1259 0.69711,0.1375 1.063499,0.1263 1.02704,0.097 2.01256,-0.1397 2.85082,-0.3155 0.897102,-0.019 1.720863,-0.542 2.272828,-0.8839 0.247008,-0.3335 0.127458,-0.8566 0.18939,-1.3112 0.04145,-0.5124 -0.131574,-0.9471 -0.315659,-1.4035 -0.114958,-0.6455 -0.446729,-1.1234 -0.568203,-1.7678 -0.08866,-0.5972 -0.336482,-1.1359 -0.505049,-1.7678 -0.129276,-0.3217 -0.147155,-0.6888 -0.126269,-1.0733 -0.20871,-0.5309 -0.268392,-1.2005 -0.568204,-1.7362 -0.116028,-0.5195 -0.138579,-0.7363 -0.252533,-1.2942 -0.190782,-0.4043 -0.155919,-0.8849 -0.252538,-1.3258 -0.238428,-0.3662 -0.320581,-0.984 -0.441919,-1.389 -0.07818,-0.3582 -0.337058,-0.591 -0.378789,-0.9907 0.03259,-0.3476 -0.102156,-0.6263 -0.06313,-0.9761 -0.69728,-3.5456 -1.674467,0.3703 -1.767843,0.5778 z"
       id="path3808"
       inkscape:connector-curvature="0"
       sodipodi:nodetypes="cccccccccccccccccccccccccccc" />
    <path
       transform="matrix(1.184,0,0,1.3363636,19.938896,996.92756)"
       d="m 15.846768,17.316616 a 3.9459083,3.4723995 0 1 1 -7.8918165,0 3.9459083,3.4723995 0 1 1 7.8918165,0 z"
       sodipodi:ry="3.4723995"
       sodipodi:rx="3.9459083"
       sodipodi:cy="17.316616"
       sodipodi:cx="11.90086"
       id="path3829"
       style="fill:#ffffff;stroke:#eaeaea;stroke-width:0.79499030000000004;stroke-miterlimit:4;stroke-opacity:1;stroke-dasharray:none"
       sodipodi:type="arc" />
    <path
       transform="matrix(1.3518519,0,0,1.3518519,16.555278,998.2577)"
       d="m 14.584077,14.759667 a 1.7046324,1.3573924 0 1 1 -3.409264,0 1.7046324,1.3573924 0 1 1 3.409264,0 z"
       sodipodi:ry="1.3573924"
       sodipodi:rx="1.7046324"
       sodipodi:cy="14.759667"
       sodipodi:cx="12.879445"
       id="path3831"
       style="fill:#243eff;stroke:none;fill-opacity:1"
       sodipodi:type="arc" />
    <path
       style="fill:#d45500;stroke:none"
       d="m 24.732143,1006.1568 c -0.427084,0.2845 0.170275,-0.2464 -0.07129,0.1382 -0.2019,0.2571 -0.134518,0.5708 -0.151922,0.9073 -0.02833,0.3062 -0.03734,0.6049 -0.07326,0.9196 -0.01103,0.3876 0.01087,0.7271 -0.01602,1.1247 -0.01345,0.2411 0.0625,0.6345 -0.187854,0.6553 0.03183,0.5584 -0.0285,1.1239 0.05625,1.679 -0.01308,0.4908 0.02667,0.9887 -0.04697,1.4691 0.01509,0.7308 -0.03947,1.4677 0.0479,2.1915 -0.0064,0.368 -0.01671,0.74 0.04138,1.0939 -0.01823,0.3442 0.05596,0.7033 -0.08929,1.0268 0.02792,0.405 -0.11257,0.7565 -0.13393,1.1431 0.05636,0.3921 -0.1307,0.6146 -0.17857,0.9998 -0.08235,0.4568 -0.260115,0.8758 -0.223219,1.3491 0,0.2497 0,0.4994 0,0.7491 0.12279,0.3464 0.166463,0.6941 0.262849,1.0075 0.166931,0.1439 0.310339,0.4446 0.406771,0.555 0.274714,0.098 0.628879,-0.018 0.89287,0.1339 0.358516,0 0.731442,0.015 1.052543,-0.092 0.358986,0.1608 0.200444,-0.515 0.279117,-0.121 0.426449,-6e-4 0.807593,-0.3291 1.11643,-0.3698 0.299664,-0.043 0.500592,-0.2691 0.721568,-0.3104 0.185833,-0.083 0.461165,-0.2621 0.357128,-0.7325 0.01666,-0.3292 0.205334,-0.8755 0.04465,-1.1425 -0.224707,-0.411 -0.364967,-0.8215 -0.466996,-1.2508 -0.113772,-0.2472 -0.152846,-0.8246 -0.142719,-0.9991 -0.207757,-0.3451 -0.211973,-0.9565 -0.514938,-1.3194 -0.09037,-0.3863 -0.39535,-0.6418 -0.289969,-1.1077 0.0502,-0.9373 -0.06907,-0.521 -0.326449,-1.1713 -0.01358,-0.3023 -0.03332,-1.3626 -0.207059,-0.9722 -0.327519,-0.1475 -0.180154,-1.3092 -0.366384,-1.6937 -0.3449,-1.3041 -0.559407,-1.7205 -0.676529,-3.093 -0.139841,-0.4119 -0.571801,-1.4451 -0.714285,-1.8574 -0.09837,-0.4371 -0.198321,-0.5047 -0.401813,-0.9105 z"
       id="path3835"
       inkscape:connector-curvature="0"
       sodipodi:nodetypes="ccccccccccccccccccccccccccccccccccc" />
    <use
       x="0"
       y="0"
       xlink:href="#path3829"
       id="use3778"
       transform="translate(-20.455589,0)"
       width="48"
       height="48" />
    <use
       x="0"
       y="0"
       xlink:href="#path3831"
       id="use3780"
       transform="translate(-20.455589,0)"
       width="48"
       height="48" />
  </g>
  <g
     inkscape:groupmode="layer"
     id="layer3"
     inkscape:label="Layer#1"
     style="display:none">
    <g
       transform="matrix(0.98929745,0.14591281,-0.14591281,0.98929745,150.43742,-996.85864)"
       id="g3883">
      <path
         sodipodi:nodetypes="ccccccccccccc"
         inkscape:connector-curvature="0"
         id="path3851"
         d="m 8.3035715,1028.6122 c -0.4725847,-0.4228 0.2680613,-1.2294 -0.4985599,-1.564 -0.4422978,-0.44 -1.09064,-0.3996 -1.4397386,-0.9258 -0.5583503,-0.1671 -0.4583955,-0.8279 -0.8295587,-1.0816 -0.1477415,-0.2145 -0.2008754,-0.4726 -0.1785717,-0.7614 -0.00306,-0.3655 0.040942,-0.7493 -0.178572,-1.0244 -0.3664137,-0.4442 0.00874,-1.0956 -0.3988291,-1.4773 -0.4140677,-0.175 -0.8669818,-0.2718 -1.2083138,-0.6655 -0.1101558,-0.1419 -0.2307014,-0.3899 -0.178572,-0.6721 0.019499,-0.3899 0.2026049,-0.8922 0.042399,-1.2399 -0.00583,-0.4158 -0.2177509,-0.7077 -0.2209709,-1.1237 0.1930257,-0.485 -0.00918,-1.1017 0.357144,-1.5179 0.065611,-0.3484 -0.4480992,-4.2736 -0.1219991,-4.5637"
         style="fill:none;stroke:#522e06;stroke-width:1px;stroke-linecap:butt;stroke-linejoin:miter;stroke-opacity:1" />
      <path
         inkscape:connector-curvature="0"
         id="path3854"
         d="m 0.44642857,1012.7293 c 0.15679815,0.3628 0.11606535,0.7675 0.19172448,1.148 0.26409537,0.1954 0.15314525,0.5776 0.3377522,0.8086 0.23892175,0.1885 0.17396755,0.5238 0.48502125,0.6128 0.3082822,0.2551 0.3413461,0.6803 0.6388866,0.9512 0.2561382,0.3632 0.4249381,0.7791 0.6967766,1.133 0.190528,0.2822 0.2676234,0.6247 0.4514153,0.9105 0.1147818,0.3451 0.1943207,0.7134 0.142417,1.078"
         style="fill:none;stroke:#522e06;stroke-width:1px;stroke-linecap:butt;stroke-linejoin:miter;stroke-opacity:1" />
    </g>
    <g
       transform="matrix(0.80024178,0.51385508,-0.45537476,0.90301076,471.21473,-922.78866)"
       id="g3887">
      <path
         sodipodi:nodetypes="ccccccccccccccccccc"
         inkscape:connector-curvature="0"
         id="path3860"
         d="m 37.88778,1030.3168 c 0.588214,-0.1806 0.664308,-0.7156 1.049967,-1.1371 0.269197,-0.4072 0.70214,-0.7098 1.015432,-0.866 0.02832,-0.287 0.348904,-0.4747 0.340935,-0.9 0.488025,-0.8553 0.585282,-1.3877 1.165083,-2.362 0.347802,-0.1061 0.303609,-0.5529 0.53572,-0.7136 0.143426,-0.1939 0.07631,-0.5978 0.08929,-0.9248 0.0326,-0.4513 -0.08757,-0.9354 0.08661,-1.3534 0.341126,-0.3347 0.393435,-0.8697 0.806233,-1.1133 0.0081,-0.4109 0.215663,-0.2065 0.357146,-0.624 0.128964,-0.2657 0.08004,-0.4824 0.357146,-0.6691 0.104902,-0.2621 0.154155,-0.3358 0.280417,-0.3657 -0.05007,-0.2994 0.2716,-0.2948 0.166015,-0.6748 -5.13e-4,-0.6788 6.94e-4,-1.3616 0,-2.0376 -0.298257,-0.1531 -0.196974,-0.6097 -0.362097,-0.8861 0.108426,-0.4837 -0.308042,-0.4841 -0.173625,-0.9919 0.0017,-0.1032 -0.0033,-0.6426 0,-0.4417 0.0058,-0.3875 0.136798,-0.4741 0.08928,-0.8814 -0.04455,-0.094 0.04203,-0.1383 0,-0.011"
         style="fill:none;stroke:#522309;stroke-width:1px;stroke-linecap:butt;stroke-linejoin:miter;stroke-opacity:1" />
      <path
         sodipodi:nodetypes="cccccccccc"
         inkscape:connector-curvature="0"
         id="path3862"
         d="m 44.085479,1018.9756 c 0.0053,-0.2202 0.523387,-0.3137 0.248786,-0.032 -0.243037,0.1508 -0.276606,-0.2034 -0.05225,-0.2577 0.262972,-0.3258 0.568433,-0.6362 0.718051,-1.0331 0.16867,-0.3084 0.47146,-0.5046 0.662929,-0.7914 0.137661,-0.2865 0.255567,-0.5825 0.501555,-0.7967 0.159323,-0.1898 0.152557,-0.4595 0.314489,-0.6511 0.157637,-0.2195 0.284205,-0.4695 0.277509,-0.7467 0.01718,-0.3769 0.260978,-0.6943 0.288082,-1.0643 0.054,-0.4883 -0.07242,-0.5386 -0.101995,-0.7818"
         style="fill:none;stroke:#522309;stroke-width:1px;stroke-linecap:butt;stroke-linejoin:miter;stroke-opacity:1" />
    </g>
  </g>
  <g
     inkscape:label="Layer#2"
     id="g3808"
     inkscape:groupmode="layer"
     style="display:inline">
    <g
       id="g3810"
       transform="translate(0,-1004.3622)">
      <path
         style="fill:none;stroke:#522e06;stroke-width:1px;stroke-linecap:butt;stroke-linejoin:miter;stroke-opacity:1"
         d="m 8.3035715,1028.6122 c -0.4725847,-0.4228 0.2680613,-1.2294 -0.4985599,-1.564 -0.4422978,-0.44 -1.09064,-0.3996 -1.4397386,-0.9258 -0.5583503,-0.1671 -0.4583955,-0.8279 -0.8295587,-1.0816 -0.1477415,-0.2145 -0.2008754,-0.4726 -0.1785717,-0.7614 -0.00306,-0.3655 0.040942,-0.7493 -0.178572,-1.0244 -0.3664137,-0.4442 0.00874,-1.0956 -0.3988291,-1.4773 -0.4140677,-0.175 -0.8669818,-0.2718 -1.2083138,-0.6655 -0.1101558,-0.1419 -0.2307014,-0.3899 -0.178572,-0.6721 0.019499,-0.3899 0.2026049,-0.8922 0.042399,-1.2399 -0.00583,-0.4158 -0.2177509,-0.7077 -0.2209709,-1.1237 0.1930257,-0.485 -0.00918,-1.1017 0.357144,-1.5179 0.065611,-0.3484 -0.4480992,-4.2736 -0.1219991,-4.5637"
         id="path3812"
         inkscape:connector-curvature="0"
         sodipodi:nodetypes="ccccccccccccc" />
      <path
         style="fill:none;stroke:#522e06;stroke-width:1px;stroke-linecap:butt;stroke-linejoin:miter;stroke-opacity:1"
         d="m 0.44642857,1012.7293 c 0.15679815,0.3628 0.11606535,0.7675 0.19172448,1.148 0.26409537,0.1954 0.15314525,0.5776 0.3377522,0.8086 0.23892175,0.1885 0.17396755,0.5238 0.48502125,0.6128 0.3082822,0.2551 0.3413461,0.6803 0.6388866,0.9512 0.2561382,0.3632 0.4249381,0.7791 0.6967766,1.133 0.190528,0.2822 0.2676234,0.6247 0.4514153,0.9105 0.1147818,0.3451 0.1943207,0.7134 0.142417,1.078"
         id="path3814"
         inkscape:connector-curvature="0" />
    </g>
    <g
       id="g3816"
       transform="translate(0,-1004.3622)">
      <path
         style="fill:none;stroke:#522309;stroke-width:1px;stroke-linecap:butt;stroke-linejoin:miter;stroke-opacity:1"
         d="m 37.88778,1030.3168 c 0.588214,-0.1806 0.664308,-0.7156 1.049967,-1.1371 0.269197,-0.4072 0.70214,-0.7098 1.015432,-0.866 0.02832,-0.287 0.348904,-0.4747 0.340935,-0.9 0.488025,-0.8553 0.585282,-1.3877 1.165083,-2.362 0.347802,-0.1061 0.303609,-0.5529 0.53572,-0.7136 0.143426,-0.1939 0.07631,-0.5978 0.08929,-0.9248 0.0326,-0.4513 -0.08757,-0.9354 0.08661,-1.3534 0.341126,-0.3347 0.393435,-0.8697 0.806233,-1.1133 0.0081,-0.4109 0.215663,-0.2065 0.357146,-0.624 0.128964,-0.2657 0.08004,-0.4824 0.357146,-0.6691 0.104902,-0.2621 0.154155,-0.3358 0.280417,-0.3657 -0.05007,-0.2994 0.2716,-0.2948 0.166015,-0.6748 -5.13e-4,-0.6788 6.94e-4,-1.3616 0,-2.0376 -0.298257,-0.1531 -0.196974,-0.6097 -0.362097,-0.8861 0.108426,-0.4837 -0.308042,-0.4841 -0.173625,-0.9919 0.0017,-0.1032 -0.0033,-0.6426 0,-0.4417 0.0058,-0.3875 0.136798,-0.4741 0.08928,-0.8814 -0.04455,-0.094 0.04203,-0.1383 0,-0.011"
         id="path3818"
         inkscape:connector-curvature="0"
         sodipodi:nodetypes="ccccccccccccccccccc" />
      <path
         style="fill:none;stroke:#522309;stroke-width:1px;stroke-linecap:butt;stroke-linejoin:miter;stroke-opacity:1"
         d="m 44.085479,1018.9756 c 0.0053,-0.2202 0.523387,-0.3137 0.248786,-0.032 -0.243037,0.1508 -0.276606,-0.2034 -0.05225,-0.2577 0.262972,-0.3258 0.568433,-0.6362 0.718051,-1.0331 0.16867,-0.3084 0.47146,-0.5046 0.662929,-0.7914 0.137661,-0.2865 0.255567,-0.5825 0.501555,-0.7967 0.159323,-0.1898 0.152557,-0.4595 0.314489,-0.6511 0.157637,-0.2195 0.284205,-0.4695 0.277509,-0.7467 0.01718,-0.3769 0.260978,-0.6943 0.288082,-1.0643 0.054,-0.4883 -0.07242,-0.5386 -0.101995,-0.7818"
         id="path3820"
         inkscape:connector-curvature="0"
         sodipodi:nodetypes="cccccccccc" />
    </g>
  </g>
  <g
     inkscape:groupmode="layer"
     id="layer2"
     inkscape:label="Layer"
     style="display:none">
    <g
       transform="matrix(0.93429833,-0.35649211,0.35649211,0.93429833,-360.79107,-931.34749)"
       id="g3783">
      <path
         style="fill:none;stroke:#522e06;stroke-width:1px;stroke-linecap:butt;stroke-linejoin:miter;stroke-opacity:1"
         d="m 8.3035715,1028.6122 c -0.4725847,-0.4228 0.2680613,-1.2294 -0.4985599,-1.564 -0.4422978,-0.44 -1.09064,-0.3996 -1.4397386,-0.9258 -0.5583503,-0.1671 -0.4583955,-0.8279 -0.8295587,-1.0816 -0.1477415,-0.2145 -0.2008754,-0.4726 -0.1785717,-0.7614 -0.00306,-0.3655 0.040942,-0.7493 -0.178572,-1.0244 -0.3664137,-0.4442 0.00874,-1.0956 -0.3988291,-1.4773 -0.4140677,-0.175 -0.8669818,-0.2718 -1.2083138,-0.6655 -0.1101558,-0.1419 -0.2307014,-0.3899 -0.178572,-0.6721 0.019499,-0.3899 0.2026049,-0.8922 0.042399,-1.2399 -0.00583,-0.4158 -0.2177509,-0.7077 -0.2209709,-1.1237 0.1930257,-0.485 -0.00918,-1.1017 0.357144,-1.5179 0.065611,-0.3484 -0.4480992,-4.2736 -0.1219991,-4.5637"
         id="path3785"
         inkscape:connector-curvature="0"
         sodipodi:nodetypes="ccccccccccccc" />
      <path
         style="fill:none;stroke:#522e06;stroke-width:1px;stroke-linecap:butt;stroke-linejoin:miter;stroke-opacity:1"
         d="m 0.44642857,1012.7293 c 0.15679815,0.3628 0.11606535,0.7675 0.19172448,1.148 0.26409537,0.1954 0.15314525,0.5776 0.3377522,0.8086 0.23892175,0.1885 0.17396755,0.5238 0.48502125,0.6128 0.3082822,0.2551 0.3413461,0.6803 0.6388866,0.9512 0.2561382,0.3632 0.4249381,0.7791 0.6967766,1.133 0.190528,0.2822 0.2676234,0.6247 0.4514153,0.9105 0.1147818,0.3451 0.1943207,0.7134 0.142417,1.078"
         id="path3787"
         inkscape:connector-curvature="0" />
    </g>
    <g
       transform="matrix(0.95152909,-0.30755877,0.30755877,0.95152909,-315.29048,-946.2024)"
       id="g3789">
      <path
         style="fill:none;stroke:#522309;stroke-width:1px;stroke-linecap:butt;stroke-linejoin:miter;stroke-opacity:1"
         d="m 37.88778,1030.3168 c 0.588214,-0.1806 0.664308,-0.7156 1.049967,-1.1371 0.269197,-0.4072 0.70214,-0.7098 1.015432,-0.866 0.02832,-0.287 0.348904,-0.4747 0.340935,-0.9 0.488025,-0.8553 0.585282,-1.3877 1.165083,-2.362 0.347802,-0.1061 0.303609,-0.5529 0.53572,-0.7136 0.143426,-0.1939 0.07631,-0.5978 0.08929,-0.9248 0.0326,-0.4513 -0.08757,-0.9354 0.08661,-1.3534 0.341126,-0.3347 0.393435,-0.8697 0.806233,-1.1133 0.0081,-0.4109 0.215663,-0.2065 0.357146,-0.624 0.128964,-0.2657 0.08004,-0.4824 0.357146,-0.6691 0.104902,-0.2621 0.154155,-0.3358 0.280417,-0.3657 -0.05007,-0.2994 0.2716,-0.2948 0.166015,-0.6748 -5.13e-4,-0.6788 6.94e-4,-1.3616 0,-2.0376 -0.298257,-0.1531 -0.196974,-0.6097 -0.362097,-0.8861 0.108426,-0.4837 -0.308042,-0.4841 -0.173625,-0.9919 0.0017,-0.1032 -0.0033,-0.6426 0,-0.4417 0.0058,-0.3875 0.136798,-0.4741 0.08928,-0.8814 -0.04455,-0.094 0.04203,-0.1383 0,-0.011"
         id="path3791"
         inkscape:connector-curvature="0"
         sodipodi:nodetypes="ccccccccccccccccccc" />
      <path
         style="fill:none;stroke:#522309;stroke-width:1px;stroke-linecap:butt;stroke-linejoin:miter;stroke-opacity:1"
         d="m 44.085479,1018.9756 c 0.0053,-0.2202 0.523387,-0.3137 0.248786,-0.032 -0.243037,0.1508 -0.276606,-0.2034 -0.05225,-0.2577 0.262972,-0.3258 0.568433,-0.6362 0.718051,-1.0331 0.16867,-0.3084 0.47146,-0.5046 0.662929,-0.7914 0.137661,-0.2865 0.255567,-0.5825 0.501555,-0.7967 0.159323,-0.1898 0.152557,-0.4595 0.314489,-0.6511 0.157637,-0.2195 0.284205,-0.4695 0.277509,-0.7467 0.01718,-0.3769 0.260978,-0.6943 0.288082,-1.0643 0.054,-0.4883 -0.07242,-0.5386 -0.101995,-0.7818"
         id="path3793"
         inkscape:connector-curvature="0"
         sodipodi:nodetypes="cccccccccc" />
    </g>
  </g>
</svg>
